<?xml version="1.0" encoding="iso-8859-1"?>
<!-- Generator: Adobe Illustrator 19.0.0, SVG Export Plug-In . SVG Version: 6.00 Build 0)  -->
<svg version="1.1" id="Camada_1" xmlns="http://www.w3.org/2000/svg" xmlns:xlink="http://www.w3.org/1999/xlink" x="0px" y="0px"
	 viewBox="0 0 160 160" style="enable-background:new 0 0 160 160;" xml:space="preserve">
<rect id="XMLID_1_" x="0" y="0" style="fill:#FFFFFF;" width="160" height="160"/>
<g id="XMLID_11_">
	<path id="XMLID_2_" style="fill:#65A7D1;" d="M100.795,70.542c-0.824,55.78-57.507,54.485-57.507,54.485l0.817-55.322
		L100.795,70.542z"/>
	<path id="XMLID_6_" style="fill:#245A7B;" d="M78.26,71.036c-0.251,17.013-16.702,36.883-36.628,36.589S5.862,86.157,6.113,69.144
		L78.26,71.036z"/>
	<path id="XMLID_7_" style="fill:#65A7D1;" d="M43.491,111.266c7.317,0.108,18.077,6.432,17.964,14.036
		c-0.112,7.604-11.054,13.608-18.371,13.5L43.491,111.266z"/>
	<path id="XMLID_4_" style="fill:#65A7D1;" d="M100.783,71.328l-56.69-0.837l0.513-34.749c0.294-19.944,56.984-19.107,56.69,0.837
		L100.783,71.328z"/>
	<path id="XMLID_9_" style="fill:#245A7B;" d="M101.011,55.912c0,0,27.597-9.196,52.879-4.936c0,0-27.921-15.046-52.677-8.781
		L101.011,55.912z"/>
	<path id="XMLID_10_" style="fill:#00436A;" d="M55.718,44.267c0,0,10.571-5.789,28.053-5.302c0,0,11.564-27.497,21.275,0.308
		c1.993,5.063,0.757,21.435-7.95,20.239c-7.571-0.062-11.556-12.315-12.686-15.279C84.411,44.234,58.516,49.11,55.718,44.267z"/>
	<path id="XMLID_8_" style="fill:#65A7D1;" d="M102.381,41.936c1.224,6.41-0.597,12.094-4.067,12.695s-7.275-4.106-8.499-10.516
		s0.597-12.094,4.067-12.695S101.157,35.527,102.381,41.936z"/>
</g>
</svg>
