<?xml version="1.0" encoding="iso-8859-1"?>
<!-- Generator: Adobe Illustrator 19.0.0, SVG Export Plug-In . SVG Version: 6.00 Build 0)  -->
<svg version="1.1" id="Camada_1" xmlns="http://www.w3.org/2000/svg" xmlns:xlink="http://www.w3.org/1999/xlink" x="0px" y="0px"
	 viewBox="0 0 160 160" style="enable-background:new 0 0 160 160;" xml:space="preserve">
<g id="XMLID_11_">
	<path id="XMLID_2_" style="fill:#65A7D1;" d="M59.205,70.542c0.824,55.78,57.507,54.485,57.507,54.485l-0.817-55.322L59.205,70.542
		z"/>
	<path id="XMLID_6_" style="fill:#245A7B;" d="M81.74,71.036c0.251,17.013,16.702,36.883,36.628,36.589s35.771-21.468,35.519-38.481
		L81.74,71.036z"/>
	<path id="XMLID_7_" style="fill:#65A7D1;" d="M116.509,111.266c-7.317,0.108-18.077,6.432-17.964,14.036
		c0.112,7.604,11.054,13.608,18.371,13.5L116.509,111.266z"/>
	<path id="XMLID_4_" style="fill:#65A7D1;" d="M59.217,71.328l56.69-0.837l-0.513-34.749c-0.294-19.944-56.984-19.107-56.69,0.837
		L59.217,71.328z"/>
	<path id="XMLID_9_" style="fill:#245A7B;" d="M58.989,55.912c0,0-27.597-9.196-52.879-4.936c0,0,27.921-15.046,52.677-8.781
		L58.989,55.912z"/>
	<path id="XMLID_10_" style="fill:#00436A;" d="M104.282,44.267c0,0-10.571-5.789-28.053-5.302c0,0-11.564-27.497-21.275,0.308
		c-1.993,5.063-0.757,21.435,7.95,20.239c7.571-0.062,11.556-12.315,12.686-15.279C75.589,44.234,101.484,49.11,104.282,44.267z"/>
	<path id="XMLID_8_" style="fill:#65A7D1;" d="M57.619,41.936c-1.224,6.41,0.597,12.094,4.067,12.695s7.275-4.106,8.499-10.516
		s-0.597-12.094-4.067-12.695C62.648,30.818,58.843,35.527,57.619,41.936z"/>
</g>
</svg>
